<svg width="34" height="32" viewBox="0 0 34 32" fill="none" xmlns="http://www.w3.org/2000/svg">
<path d="M17.5256 8.81245C13.5506 8.81245 10.3443 12.0187 10.3443 15.9937C10.3443 19.9687 13.5506 23.1749 17.5256 23.1749C21.5006 23.1749 24.7068 19.9687 24.7068 15.9937C24.7068 12.0187 21.5006 8.81245 17.5256 8.81245ZM17.5256 20.6625C14.9568 20.6625 12.8568 18.5687 12.8568 15.9937C12.8568 13.4187 14.9506 11.325 17.5256 11.325C20.1006 11.325 22.1943 13.4187 22.1943 15.9937C22.1943 18.5687 20.0943 20.6625 17.5256 20.6625ZM26.6756 8.5187C26.6756 9.44995 25.9256 10.1937 25.0006 10.1937C24.0693 10.1937 23.3256 9.4437 23.3256 8.5187C23.3256 7.5937 24.0756 6.8437 25.0006 6.8437C25.9256 6.8437 26.6756 7.5937 26.6756 8.5187ZM31.4318 10.2187C31.3256 7.97495 30.8131 5.98745 29.1693 4.34995C27.5318 2.71245 25.5443 2.19995 23.3006 2.08745C20.9881 1.9562 14.0568 1.9562 11.7443 2.08745C9.50684 2.1937 7.51934 2.7062 5.87559 4.3437C4.23184 5.9812 3.72559 7.9687 3.61309 10.2125C3.48184 12.525 3.48184 19.4562 3.61309 21.7687C3.71934 24.0124 4.23184 26 5.87559 27.6375C7.51934 29.275 9.50059 29.7875 11.7443 29.9C14.0568 30.0312 20.9881 30.0312 23.3006 29.9C25.5443 29.7937 27.5318 29.2812 29.1693 27.6375C30.8068 26 31.3193 24.0124 31.4318 21.7687C31.5631 19.4562 31.5631 12.5312 31.4318 10.2187ZM28.4443 24.25C27.9568 25.475 27.0131 26.4187 25.7818 26.9125C23.9381 27.6437 19.5631 27.475 17.5256 27.475C15.4881 27.475 11.1068 27.6375 9.26934 26.9125C8.04434 26.425 7.10059 25.4812 6.60684 24.25C5.87559 22.4062 6.04434 18.0312 6.04434 15.9937C6.04434 13.9562 5.88184 9.57495 6.60684 7.73745C7.09434 6.51245 8.03809 5.5687 9.26934 5.07495C11.1131 4.3437 15.4881 4.51245 17.5256 4.51245C19.5631 4.51245 23.9443 4.34995 25.7818 5.07495C27.0068 5.56245 27.9506 6.5062 28.4443 7.73745C29.1756 9.5812 29.0068 13.9562 29.0068 15.9937C29.0068 18.0312 29.1756 22.4125 28.4443 24.25Z" fill="#9CA3AF"/>
</svg>
