<svg width="34" height="32" viewBox="0 0 34 32" fill="none" xmlns="http://www.w3.org/2000/svg">
<path d="M29.7106 9.48225C29.7309 9.7665 29.7309 10.0508 29.7309 10.3351C29.7309 19.0051 23.132 28.9949 11.0711 28.9949C7.35531 28.9949 3.90356 27.9188 1 26.0508C1.52794 26.1117 2.0355 26.132 2.58375 26.132C5.64969 26.132 8.47206 25.0965 10.7259 23.33C7.84262 23.2691 5.42637 21.3808 4.59387 18.7818C5 18.8426 5.40606 18.8833 5.8325 18.8833C6.42131 18.8833 7.01019 18.802 7.55837 18.6599C4.55331 18.0508 2.29944 15.4112 2.29944 12.2234V12.1422C3.1725 12.6295 4.18781 12.9341 5.26388 12.9746C3.49738 11.7969 2.34006 9.78681 2.34006 7.51269C2.34006 6.29444 2.66488 5.17769 3.23344 4.20306C6.46187 8.18275 11.3147 10.7817 16.7563 11.066C16.6548 10.5787 16.5938 10.0711 16.5938 9.5635C16.5938 5.94925 19.5177 3.00513 23.1522 3.00513C25.0405 3.00513 26.7461 3.797 27.9441 5.07619C29.4263 4.79194 30.8476 4.24369 32.1065 3.49244C31.6191 5.01531 30.5836 6.2945 29.2232 7.10663C30.5431 6.96456 31.8222 6.599 32.9999 6.09144C32.1066 7.39088 30.9898 8.54819 29.7106 9.48225Z" fill="#9CA3AF"/>
</svg>
